<?xml version="1.0" encoding="UTF-8"?>
<svg version="1.1" xmlns="http://www.w3.org/2000/svg" width="1332" height="1332">
<path d="M0 0 C2.31877429 0.00543989 4.63753837 0.0078073 6.9563179 0.00987244 C29.38680288 0.04100225 51.55898906 0.57989706 73.84544754 3.31785583 C76.45346213 3.61134336 79.06153574 3.90430686 81.66966629 4.19676208 C111.08292497 7.63265042 140.14448596 13.0437936 168.84544754 20.31785583 C170.60453445 20.7618573 170.60453445 20.7618573 172.39915848 21.21482849 C239.5604488 38.39972597 303.30882277 67.437185 361.84544754 104.31785583 C362.5062532 104.73132263 363.16705887 105.14478943 363.84788895 105.57078552 C382.47112682 117.23081116 400.02585683 130.40725425 417.23509598 144.04393005 C418.68766872 145.1930393 420.14517068 146.33591093 421.60326004 147.47801208 C426.67828521 151.47916829 431.50492068 155.6737106 436.27513504 160.03269958 C438.92124087 162.38524048 441.64450534 164.60479279 444.40794754 166.81785583 C448.71742541 170.30185625 452.65422474 173.97753859 456.48216629 177.98191833 C458.39248201 179.87013123 460.32264611 181.60267801 462.36107254 183.34519958 C467.58301521 187.87577963 472.44263568 192.76508868 477.31834793 197.66038513 C478.905047 199.2524455 480.49702496 200.83908574 482.08958817 202.42527771 C487.55248477 207.88460554 492.83462683 213.43679399 497.84544754 219.31785583 C499.29990271 220.92553956 500.75765649 222.53025298 502.22044754 224.13035583 C506.13483501 228.46863636 509.85834814 232.93189269 513.53294754 237.47410583 C515.9184383 240.40761474 518.34748923 243.30074909 520.78294754 246.19285583 C536.11809854 264.59503703 549.77065118 284.26754894 562.84544754 304.31785583 C563.36493973 305.11304626 563.88443192 305.90823669 564.41966629 306.7275238 C587.20772443 341.76635998 606.41584799 379.49287199 621.84544754 418.31785583 C622.28211746 419.40985291 622.71878738 420.50184998 623.16868973 421.62693787 C635.0357923 451.49119779 644.34881949 482.08190562 651.84544754 513.31785583 C652.12227371 514.46657166 652.39909988 515.61528748 652.68431473 516.79881287 C658.19940206 539.94687847 662.09485408 563.3383559 665.03294754 586.94285583 C665.18779617 588.16569275 665.34264481 589.38852966 665.50218582 590.64842224 C668.40766701 615.06521354 669.22346022 639.44335575 669.16350555 664.00382614 C669.15785585 666.35603148 669.15504146 668.70822958 669.15242386 671.06044006 C669.11710725 692.89409666 668.8877162 714.60370372 666.10515213 736.29191589 C665.82747017 738.45809622 665.56003386 740.62541131 665.29320145 742.79295349 C663.98282772 753.32815325 662.48322622 763.82882128 660.84544754 774.31785583 C660.6522493 775.55970642 660.45905106 776.80155701 660.25999832 778.08103943 C647.46107612 858.47943705 617.92757538 937.72744136 575.84544754 1007.31785583 C574.9021054 1008.89950923 573.95936366 1010.48152094 573.01732254 1012.06394958 C559.8060433 1034.11468855 545.29062519 1055.53505395 529.21312332 1075.59861755 C527.80372372 1077.37030481 526.41409974 1079.15599394 525.02904129 1080.94676208 C520.23306438 1087.138552 515.33978665 1093.1191214 510.02904129 1098.88426208 C507.68243782 1101.49952856 505.48191929 1104.20259873 503.28294754 1106.94285583 C500.04864698 1110.94213878 496.69273758 1114.63387173 492.96263504 1118.17332458 C491.17158498 1119.98750629 489.53410838 1121.83429186 487.88060379 1123.77098083 C483.19671624 1129.16430295 478.13342022 1134.17961263 473.07567215 1139.21800232 C471.41118477 1140.87712904 469.75211307 1142.54153635 468.09349442 1144.20652771 C462.51515957 1149.78835407 456.85089726 1155.19377895 450.84544754 1160.31785583 C449.06974533 1161.937534 447.29836447 1163.56197301 445.53294754 1165.19285583 C441.02604651 1169.30245429 436.39956129 1173.21043992 431.65404129 1177.04051208 C428.72984035 1179.41159574 425.84978387 1181.83005414 422.97044754 1184.25535583 C353.59565205 1242.06768541 269.81722227 1284.38009386 155.84544754 1315.31785583 C154.72960281 1315.59081482 153.61375809 1315.8637738 152.46409988 1316.14500427 C104.4026269 1327.78101554 54.99664535 1332.76082221 5.6098671 1332.63571167 C3.36974799 1332.63026292 1.12963948 1332.62790162 -1.11048508 1332.62583923 C-23.5871125 1332.59361488 -45.81350765 1331.93455071 -68.15455246 1329.31785583 C-69.50855385 1329.17033483 -70.86272407 1329.02435568 -72.21705246 1328.87986755 C-148.00833986 1320.7601595 -221.60926198 1298.41079894 -290.15455246 1265.31785583 C-291.21142258 1264.80867615 -292.26829269 1264.29949646 -293.35718918 1263.77488708 C-321.82548421 1249.98604131 -349.46851759 1233.98901504 -375.26392746 1215.65525818 C-377.29029192 1214.22183559 -379.33055242 1212.80984888 -381.37330246 1211.39988708 C-389.7020438 1205.62611818 -397.72919775 1199.59397133 -405.58814621 1193.19676208 C-408.99085819 1190.43038222 -412.46996509 1187.77564157 -415.96705246 1185.13035583 C-420.75854567 1181.48804189 -425.26144944 1177.61620407 -429.68580246 1173.53660583 C-432.31192519 1171.17641958 -435.02557485 1168.96459062 -437.77955246 1166.75535583 C-441.77883541 1163.52105528 -445.47056835 1160.16514588 -449.01002121 1156.43504333 C-450.82420291 1154.64399327 -452.67098848 1153.00651667 -454.60767746 1151.35301208 C-460.00099958 1146.66912453 -465.01630925 1141.60582851 -470.05469894 1136.54808044 C-471.71382566 1134.88359306 -473.37823297 1133.22452137 -475.04322433 1131.56590271 C-480.62505069 1125.98756786 -486.03047557 1120.32330555 -491.15455246 1114.31785583 C-492.77423063 1112.54215363 -494.39866964 1110.77077276 -496.02955246 1109.00535583 C-500.13915092 1104.49845481 -504.04713654 1099.87196958 -507.87720871 1095.12644958 C-510.24829237 1092.20224864 -512.66675077 1089.32219217 -515.09205246 1086.44285583 C-569.96128643 1020.59977507 -610.50111221 941.93948962 -663.47261047 669.76045609 C-663.46696447 667.40616538 -663.46414753 665.0518819 -663.46152878 662.69758606 C-663.42449525 639.78972841 -663.00928083 617.0738316 -660.15455246 594.31785583 C-659.97045334 592.81037094 -659.78637188 591.30288389 -659.60230637 589.7953949 C-658.30058553 579.27459603 -656.79558174 568.79074989 -655.15455246 558.31785583 C-654.96135422 557.07745544 -654.76815598 555.83705505 -654.56910324 554.55906677 C-644.6841804 492.45689001 -624.41334061 431.8703028 -597.15455246 375.31785583 C-596.60686203 374.17864685 -596.0591716 373.03943787 -595.49488449 371.8657074 C-587.44962727 355.22430515 -578.7639838 339.10645696 -569.15455246 323.31785583 C-568.54466476 322.31238708 -567.93477707 321.30691833 -567.30640793 320.27098083 C-559.23071327 307.0099287 -550.75324935 294.10999277 -541.70777512 281.49119568 C-540.28520324 279.50066835 -538.87848934 277.50027046 -537.47877121 275.49363708 C-531.80426906 267.38911546 -525.73710181 259.65226357 -519.4973259 251.97654724 C-517.69638724 249.75189683 -515.92727472 247.50252036 -514.15455246 245.25535583 C-506.0628507 235.15329339 -497.49198377 225.47768767 -488.68799973 215.99485779 C-487.5290053 214.72736333 -486.38332606 213.44767592 -485.24415207 212.16233826 C-479.58751175 205.78961913 -473.696215 199.70461831 -467.66114426 193.69407654 C-466.08681091 192.12513223 -464.51793657 190.55087025 -462.94947433 188.97605896 C-458.05238956 184.07574586 -453.11522514 179.26999348 -447.84669113 174.76487732 C-445.45461635 172.71930998 -443.15375634 170.57839565 -440.84205246 168.44285583 C-436.33923436 164.33294291 -431.71313943 160.42932129 -426.95533371 156.61863708 C-424.70174752 154.76736475 -422.51542553 152.87703421 -420.33423996 150.94285583 C-416.34798556 147.43853363 -412.20439679 144.19850273 -407.96705246 141.00535583 C-406.46421905 139.86633532 -404.96161692 138.72700959 -403.45923996 137.58738708 C-402.72673019 137.03260681 -401.99422043 136.47782654 -401.2395134 135.90623474 C-399.39068107 134.49774491 -397.55415234 133.07579625 -395.72486496 131.64207458 C-376.05088986 116.26104916 -354.7592612 102.81202808 -333.15455246 90.31785583 C-332.30183762 89.82382263 -331.44912277 89.32978943 -330.57056808 88.82078552 C-285.49093916 62.83717284 -237.98774188 42.32439601 -188.15455246 27.31785583 C-186.57939865 26.8337323 -186.57939865 26.8337323 -184.97242355 26.33982849 C-125.27733108 8.06727372 -62.31961123 -0.15213807 0 0 Z " fill="#010202" transform="translate(663.1545524597168,-0.3178558349609375)"/>
<path d="M0 0 C2.35677488 -0.00351227 4.71354736 -0.00918321 7.0703125 -0.01681519 C13.39663243 -0.0309105 19.72250971 -0.01415459 26.04878712 0.00946999 C32.03210025 0.02770391 38.01539205 0.02432169 43.99872395 0.02199215 C55.85273944 0.01832222 67.70658589 0.03895382 79.56054688 0.07324219 C91.01111111 0.10635042 102.46149823 0.12049295 113.91210938 0.11425781 C127.78826445 0.10673883 141.6643183 0.11418437 155.54045868 0.13591003 C160.81108432 0.14403245 166.08167119 0.14680319 171.35230255 0.1452179 C177.56766875 0.14433197 183.78282714 0.15874364 189.99813843 0.18444443 C192.26387269 0.19153948 194.52962918 0.1937225 196.79537201 0.19032669 C213.99653923 0.16948246 230.93107634 1.00922756 247.28808594 6.86523438 C248.16424561 7.17114502 249.04040527 7.47705566 249.94311523 7.79223633 C280.26228334 18.65254285 303.65846971 40.5367903 317.47558594 69.55273438 C318.16925529 71.22931528 318.83705084 72.91689 319.47558594 74.61523438 C319.98798828 75.93201172 319.98798828 75.93201172 320.51074219 77.27539062 C326.36617195 93.46131245 328.06669571 109.40884535 327.9296875 126.4987793 C327.92855578 128.51140826 327.92919918 130.52403886 327.93145752 132.53666687 C327.93259295 137.93634526 327.90927579 143.33565941 327.88116169 148.73525405 C327.85595033 154.40195926 327.85379062 160.06867521 327.84906006 165.73542786 C327.83668777 176.43757989 327.80394485 187.13956612 327.7636621 197.84164554 C327.71034927 212.32358808 327.68895243 226.80557679 327.66565323 241.28759289 C327.62817861 264.06359729 327.54844965 286.83925199 327.47558594 309.61523438 C280.28558594 309.61523438 233.09558594 309.61523438 184.47558594 309.61523438 C184.43820312 298.87992187 184.40082031 288.14460938 184.36230469 277.08398438 C184.33203016 270.28449228 184.30100738 263.48501725 184.26660156 256.68554688 C184.21212609 245.89226833 184.16071264 235.09903719 184.12915039 224.30566406 C184.10614899 216.44466347 184.07272704 208.5837874 184.02688438 200.72288561 C184.00298101 196.56205947 183.98423335 192.40135645 183.97797203 188.24046326 C183.97190807 184.32026908 183.9518612 180.40038978 183.92131042 176.48031235 C183.91255114 175.04529383 183.90880324 173.61023413 183.91057777 172.17518997 C183.91942262 161.71761618 183.0495982 154.12277966 176.47558594 145.61523438 C168.99715064 138.34453339 160.53927752 138.17088068 150.68481445 138.1953125 C149.42038513 138.18684296 148.15595581 138.17837341 146.85321045 138.16964722 C143.40478324 138.14754301 139.95659574 138.14449483 136.50810742 138.14639473 C133.62058161 138.14651492 130.7331057 138.13793108 127.84559387 138.12961721 C121.0294339 138.11042382 114.21339638 138.10748475 107.3972168 138.11425781 C100.38403044 138.12089875 93.37136999 138.0980233 86.35829026 138.06094408 C80.31894181 138.03018114 74.279762 138.01889406 68.24033684 138.0227809 C64.64116316 138.02484128 61.04239914 138.01948001 57.44330025 137.99488831 C53.42710008 137.9683495 49.41200132 137.98239888 45.39575195 138 C44.21573105 137.98673676 43.03571014 137.97347351 41.81993103 137.95980835 C33.63226518 138.04300737 27.69600942 139.67310726 21.62761784 145.34134674 C15.26360551 151.95272825 14.02731451 159.4963562 14.08117676 168.31759644 C14.07508565 169.26476032 14.06899455 170.21192421 14.06271887 171.18779004 C14.04613588 174.34585735 14.05085802 177.50351938 14.05566406 180.66162109 C14.04832104 182.93226539 14.03973413 185.20290596 14.02999878 187.47354126 C14.00779922 193.63060052 14.00485132 199.78752587 14.00674629 205.94461966 C14.00686606 211.08872002 13.99829934 216.23279209 13.98996878 221.37688458 C13.96964163 234.20840765 13.9685825 247.03983245 13.9757759 259.87136222 C13.98135032 270.99955123 13.96052642 282.12750994 13.92741543 293.25564514 C13.89363388 304.69848401 13.87898961 316.14116865 13.88313246 327.58406651 C13.88519875 334.00180195 13.87973871 340.41930797 13.85523987 346.8370018 C13.8329577 352.87328332 13.83486343 358.9090859 13.85516739 364.94536972 C13.85857472 367.15683363 13.85350039 369.36832987 13.83918381 371.57975006 C13.37087575 388.28608237 13.37087575 388.28608237 21.2016983 402.49099541 C26.46834416 407.67581019 33.14367459 409.93223876 40.463543 410.01466513 C41.53383432 410.00432422 41.53383432 410.00432422 42.62574768 409.99377441 C43.40604165 409.99830454 44.18633561 410.00283467 44.99027485 410.00750208 C47.583941 410.01905433 50.17708422 410.00950815 52.77075195 410 C54.63919912 410.00410862 56.50764373 410.00957122 58.37608337 410.01628113 C62.39095156 410.02798365 66.40568236 410.03049832 70.42056465 410.02592468 C76.78093047 410.01909575 83.1411168 410.03501803 89.50144958 410.05432129 C103.01365204 410.09214459 116.52583868 410.10496104 130.03808594 410.11523438 C144.60386856 410.12632316 159.1695679 410.14183191 173.73529381 410.18594694 C180.04517093 410.20420852 186.35484166 410.20822918 192.66473877 410.20101166 C196.60861568 410.19947909 200.5523914 410.2103413 204.49624062 410.22439003 C206.31052008 410.22835937 208.12481932 410.22732537 209.93909073 410.22061729 C220.86401683 410.18336111 230.84134341 411.00284448 241.47558594 413.61523438 C242.37839578 413.8279171 243.28120562 414.04059982 244.21137333 414.25972748 C252.46487057 416.29528194 260.01509634 420.64826848 267.47558594 424.61523438 C268.2083374 424.99695801 268.94108887 425.37868164 269.69604492 425.77197266 C275.03931046 428.62758956 279.74580906 431.88475866 284.41308594 435.74023438 C285.10474854 436.31008057 285.79641113 436.87992676 286.5090332 437.46704102 C310.21679207 457.34480826 324.60490843 486.92693722 327.47558594 517.61523438 C327.99540058 527.57687463 327.91186276 537.56219111 327.89707804 547.5347321 C327.89437826 551.5635295 327.90899413 555.59227315 327.9211731 559.62104797 C327.94210571 567.49072314 327.94677501 575.36032445 327.94498521 583.23002419 C327.94367151 589.63435367 327.94751255 596.03866034 327.95491028 602.44298553 C327.95700974 604.29600835 327.95910734 606.14903116 327.9612031 608.00205398 C327.96276839 609.38600799 327.96276839 609.38600799 327.9643653 610.79792067 C327.98321831 628.20098152 327.98223258 645.60400011 327.97539598 663.00706694 C327.96982314 678.88261532 327.99064375 694.75800222 328.02375644 710.63351288 C328.0575948 726.98548225 328.07264926 743.33737447 328.06803942 759.68937945 C328.06580509 768.84934795 328.07088509 778.00916719 328.09593201 787.16910553 C328.11707668 794.96747145 328.12040785 802.76560625 328.10163242 810.5639821 C328.09255521 814.53245962 328.09108065 818.50050776 328.11198807 822.46895027 C328.19693558 839.71424069 327.48544717 855.96349031 322.47558594 872.61523438 C321.97730412 874.2825379 321.97730412 874.2825379 321.46895599 875.98352432 C315.48351924 894.60160593 304.12139212 910.2565619 290.30371094 923.81054688 C288.86587667 925.22994737 287.47399071 926.69590291 286.10058594 928.17773438 C261.80846213 950.73470648 231.36567036 956.08572066 199.52075195 956.01928711 C197.0336883 956.02499952 194.54662727 956.03196712 192.05957031 956.04008484 C186.04148062 956.0560867 180.0235414 956.05813686 174.00544519 956.05287194 C169.10798382 956.04880808 164.21055313 956.05029987 159.31309319 956.05562019 C158.2621317 956.05674283 158.2621317 956.05674283 157.18993868 956.05788814 C155.76598565 956.05941982 154.34203262 956.06095817 152.91807961 956.06250311 C139.60691304 956.07618662 126.29580547 956.07081947 112.98464029 956.05931789 C100.84324698 956.04938687 88.7020061 956.06233129 76.56063629 956.08625209 C64.04966458 956.11071265 51.53876366 956.12023412 39.02776855 956.11359936 C32.02143825 956.11012292 25.01522507 956.1122343 18.00891304 956.12985039 C11.41856116 956.14621731 4.82845131 956.1412832 -1.76190948 956.12254524 C-4.16878011 956.11887966 -6.57567255 956.12190789 -8.98252296 956.13243103 C-24.76386114 956.19611813 -40.07909192 955.77113066 -54.50488281 948.59960938 C-56.71695315 947.52138553 -58.96224805 946.70602202 -61.27441406 945.86523438 C-88.2878992 935.12695457 -110.09871065 910.54478506 -121.46191406 884.30273438 C-128.05946636 867.3157375 -130.27269063 850.30948421 -130.09204102 832.20751953 C-130.09062553 830.17474401 -130.09143225 828.14196595 -130.09425354 826.10919189 C-130.09566958 820.66828681 -130.06657825 815.22794951 -130.03138375 809.7871747 C-129.99981322 804.07245151 -129.99716559 798.35771076 -129.99125671 792.64291382 C-129.97580751 781.85581931 -129.93490156 771.06898263 -129.88450927 760.2820009 C-129.81780198 745.6810812 -129.79110907 731.0800894 -129.76199818 716.4790554 C-129.71519189 693.52425582 -129.61552047 670.56999995 -129.52441406 647.61523438 C-82.33441406 647.61523438 -35.14441406 647.61523438 13.47558594 647.61523438 C13.47816406 658.37632812 13.48074219 669.13742187 13.48339844 680.22460938 C13.49834987 687.05146245 13.51481323 693.87825673 13.53808594 700.70507812 C13.57472633 711.53537306 13.60528249 722.36543489 13.59570312 733.19580078 C13.58875388 741.08474973 13.60293906 748.97333618 13.64202201 756.86219621 C13.6619726 761.03560642 13.671666 765.20844821 13.65600967 769.38188934 C13.64157576 773.31877389 13.65562717 777.25457786 13.69053841 781.19132423 C13.69843742 782.62789047 13.6963652 784.06455589 13.68297768 785.50108147 C13.60107806 795.11016626 14.96365399 802.57797757 20.47558594 810.61523438 C28.27339331 818.33333203 36.28518252 818.91562948 46.83984375 818.92163086 C48.08286758 818.92995438 49.32589142 818.93827789 50.60658264 818.94685364 C54.00561977 818.96678581 57.40441226 818.97758802 60.80348682 818.98268008 C62.93131628 818.9863326 65.0591225 818.99257732 67.18694305 818.99968147 C74.62252326 819.02415284 82.05803394 819.03722251 89.49365234 819.04077148 C96.40451317 819.0444033 103.31492896 819.07427879 110.22565389 819.11617607 C116.17494181 819.15096892 122.1240829 819.16632148 128.07347178 819.16701752 C131.61963535 819.16780739 135.16534524 819.17641073 138.71140289 819.20501518 C142.67235714 819.23625377 146.63268129 819.22709318 150.59375 819.21459961 C151.75461624 819.2294339 152.91548248 819.24426819 154.11152649 819.259552 C162.52826014 819.18419405 169.29023254 817.43721783 175.62253189 811.65468502 C182.33618254 804.71082891 183.92814565 797.32506286 183.86326599 787.98207092 C183.86865153 787.04236857 183.87403707 786.10266622 183.8795858 785.13448805 C183.8938351 782.00171426 183.88676906 778.86936481 183.87963867 775.73657227 C183.88534379 773.48401043 183.8923086 771.23145149 183.9004364 768.97889709 C183.91836668 762.87148154 183.91719966 756.76420967 183.91149402 750.65677571 C183.90840213 745.55483322 183.91449461 740.45291831 183.92053276 735.35097975 C183.93537831 722.62594962 183.93176485 709.90102103 183.91966946 697.17599713 C183.90973752 686.13769413 183.92267923 675.09955877 183.94660365 664.06128163 C183.97101527 652.71224828 183.98019814 641.36331503 183.97395092 630.01424783 C183.97058137 623.64856094 183.97299661 617.28301255 183.99020195 610.91734505 C184.00567573 604.93118199 184.00171033 598.9453389 183.9828968 592.95918846 C183.97921224 590.76504706 183.98231547 588.57088192 183.99278259 586.37676239 C184.00600284 583.37593454 183.99443527 580.37616434 183.97679138 577.37538147 C183.98639639 576.51213589 183.99600139 575.64889032 184.00589746 574.75948578 C183.91729082 567.40891982 181.86898887 561.44952733 177.10058594 555.80273438 C169.9085072 549.80933543 163.95973956 547.30053909 154.59284973 547.3704071 C153.81708688 547.36814253 153.04132403 547.36587796 152.24205321 547.36354476 C149.65160031 547.35826277 147.06138817 547.367069 144.47094727 547.37573242 C142.60928775 547.37461905 140.7476286 547.37256046 138.88597107 547.36962891 C134.87873696 547.36490917 130.87156146 547.3660246 126.86432838 547.37140465 C120.51145351 547.37902899 114.15869088 547.36833985 107.80583191 547.35420227 C89.74074908 547.31651224 71.67571611 547.29822541 53.6105957 547.30981445 C43.63151291 547.3160584 33.65261114 547.3043063 23.67357272 547.27336913 C17.37640353 547.25484336 11.07975215 547.25791154 4.78259242 547.27753675 C0.83627001 547.2844883 -3.10978063 547.27032444 -7.05605125 547.25058746 C-8.86542458 547.24559988 -10.6748459 547.24886731 -12.48418045 547.26172066 C-28.32660744 547.36612012 -43.48767769 544.6647838 -57.89941406 537.80273438 C-58.63289062 537.46435547 -59.36636719 537.12597656 -60.12207031 536.77734375 C-72.93276667 530.72971135 -84.72742099 522.91463735 -94.52441406 512.61523438 C-95.20117188 511.97070312 -95.87792969 511.32617188 -96.57519531 510.66210938 C-112.56916447 495.28639449 -122.31309182 473.97918574 -127.52441406 452.61523438 C-127.86589792 451.34723433 -128.20738178 450.07923428 -128.55921364 448.77280998 C-129.94588771 442.45494448 -129.80733319 436.15645496 -129.7918396 429.71511841 C-129.79558113 428.31433267 -129.80018465 426.91354901 -129.80557024 425.51276863 C-129.81775435 421.68182358 -129.8175452 417.85096616 -129.81518149 414.02000618 C-129.81477214 409.88068942 -129.82582404 405.74140032 -129.83529663 401.60209656 C-129.85188439 393.49758756 -129.85740525 385.39310767 -129.85852139 377.28858311 C-129.85947329 370.69475348 -129.86359071 364.1009334 -129.86992264 357.50710678 C-129.88753204 338.78642567 -129.89676244 320.06576746 -129.89526169 301.34507801 C-129.89518178 300.33659289 -129.89510187 299.32810777 -129.89501953 298.2890625 C-129.89493777 297.27933627 -129.89485601 296.26961005 -129.89477177 295.22928606 C-129.89395983 278.88557561 -129.91307496 262.54195754 -129.94129626 246.19827379 C-129.97008702 229.39121613 -129.98383303 212.5842034 -129.98210871 195.77712047 C-129.98144676 186.3516499 -129.98685296 176.92627605 -130.00846481 167.50082779 C-130.02675867 159.47125664 -130.03095738 151.44182603 -130.01744597 143.41224296 C-130.0109563 139.3227401 -130.01065213 135.23350619 -130.02815247 131.14402962 C-130.16929581 95.9155069 -123.77907723 64.10183233 -98.52441406 37.61523438 C-97.86441406 37.61523438 -97.20441406 37.61523438 -96.52441406 37.61523438 C-96.19441406 36.62523437 -95.86441406 35.63523438 -95.52441406 34.61523438 C-94.86441406 34.61523438 -94.20441406 34.61523438 -93.52441406 34.61523438 C-93.19441406 33.62523437 -92.86441406 32.63523438 -92.52441406 31.61523438 C-90.47873449 29.78535626 -88.44562085 28.09603869 -86.27441406 26.42773438 C-85.64180664 25.94014648 -85.00919922 25.45255859 -84.35742188 24.95019531 C-59.11750669 5.77793056 -31.24222257 -0.19958313 0 0 Z " fill="#FCFCFC" transform="translate(816.5244140625,187.384765625)"/>
<path d="M0 0 C0.98688501 -0.00453111 1.97377003 -0.00906223 2.99056065 -0.01373065 C6.2655761 -0.02629273 9.54042348 -0.02475957 12.81546021 -0.02310181 C15.17707022 -0.02909238 17.53867829 -0.03589914 19.90028381 -0.04345703 C26.29547713 -0.06107546 32.69061687 -0.06581081 39.08583212 -0.0670886 C43.09037927 -0.06851371 47.09491739 -0.07266356 51.0994606 -0.07808304 C64.37511827 -0.09567972 77.65074375 -0.10492498 90.92641316 -0.10342209 C91.64051646 -0.10334218 92.35461976 -0.10326227 93.09036255 -0.10317993 C93.8053529 -0.10309817 94.52034326 -0.10301641 95.25699998 -0.10293217 C106.82048558 -0.10212087 118.38384043 -0.12122333 129.94728826 -0.14945666 C141.86146788 -0.17831321 153.77558404 -0.19198982 165.68979943 -0.19026911 C172.36210298 -0.18960935 179.03428874 -0.19531643 185.70656967 -0.21662521 C191.99237422 -0.23615209 198.27789202 -0.23603414 204.56370735 -0.22159195 C206.85440686 -0.2195202 209.145125 -0.22410555 211.43579292 -0.23631287 C229.38993333 -0.32569747 247.06266517 1.19051949 264.03079224 7.51742554 C264.85023315 7.81552124 265.66967407 8.11361694 266.51394653 8.42074585 C281.60405949 14.11222878 296.4265954 23.55738271 307.59329224 35.26742554 C308.28809692 35.97640991 308.98290161 36.68539429 309.69876099 37.41586304 C332.5505374 61.8539729 340.94997995 90.66720124 340.82034302 123.56161499 C340.81977789 125.58321121 340.82009744 127.60480783 340.82122803 129.62640381 C340.82179859 135.07797602 340.8100926 140.52945907 340.79608011 145.98101068 C340.783523 151.69180863 340.78239834 157.40260895 340.7800293 163.11341858 C340.77382911 173.91133365 340.75743816 184.7092079 340.73733032 195.50710505 C340.71073112 210.10983293 340.69998686 224.71257209 340.68832588 239.31531811 C340.66955646 262.29938445 340.62970103 285.28336469 340.59329224 308.26742554 C293.73329224 308.26742554 246.87329224 308.26742554 198.59329224 308.26742554 C198.56751099 297.62750366 198.54172974 286.98758179 198.51516724 276.02523804 C198.48999776 269.28042802 198.46382663 262.53564646 198.43313599 255.79086304 C198.38461983 245.08774011 198.34016678 234.38471187 198.32229614 223.68148804 C198.30926095 215.88563175 198.28224877 208.08996841 198.23867917 200.29422081 C198.2161062 196.16906328 198.20037904 192.04414337 198.20140839 187.91891861 C198.20215748 184.02983148 198.18410776 180.14126877 198.1521244 176.25231743 C198.14366068 174.83104154 198.14185134 173.40970658 198.14748955 171.98841667 C198.18089741 162.2659568 197.2367879 153.90275032 191.34329224 145.89242554 C186.01206117 140.80352316 179.7299333 138.15363621 172.36451721 138.12025452 C171.28100479 138.11309921 170.19749237 138.10594391 169.08114624 138.09857178 C167.89204651 138.09588287 166.70294678 138.09319397 165.47781372 138.09042358 C163.59930473 138.08056679 163.59930473 138.08056679 161.68284607 138.07051086 C157.52669029 138.05075579 153.37057315 138.03910606 149.21438599 138.02914429 C147.78105208 138.02509549 146.34771836 138.02097853 144.91438484 138.0167942 C138.17610607 137.99774118 131.43783822 137.9835134 124.69953769 137.97518224 C116.93703918 137.96542515 109.17482698 137.93914644 101.41242927 137.89868134 C95.40376727 137.86844071 89.39518693 137.85370565 83.38645035 137.85040122 C79.80229327 137.84805872 76.218442 137.83920434 72.63436699 137.81394005 C68.62757496 137.78615348 64.62141497 137.79051459 60.61453247 137.79745483 C59.43960236 137.78464478 58.26467224 137.77183472 57.05413818 137.75863647 C49.31794437 137.80732776 41.67743814 138.60628638 35.6859045 143.97725964 C30.63900723 149.46961561 27.4785518 155.80372109 27.45907116 163.31085491 C27.45238439 164.51102215 27.45238439 164.51102215 27.44556254 165.73543519 C27.4457469 166.6086719 27.44593127 167.48190862 27.44612122 168.38160706 C27.44244453 169.31380815 27.43876784 170.24600925 27.43497974 171.20645887 C27.42394534 174.33770787 27.42009946 177.46892368 27.41629028 180.60018921 C27.41002547 182.84230657 27.40337866 185.0844229 27.39637756 187.32653809 C27.37533773 194.69614947 27.36497559 202.06576105 27.35501099 209.43539429 C27.35096347 211.97231876 27.34684655 214.50924312 27.3426609 217.04616737 C27.32579275 227.59854816 27.31115787 238.1509268 27.30391216 248.7033186 C27.30200237 251.44026376 27.30008202 254.17720892 27.29812622 256.91415405 C27.29764248 257.59438204 27.29715874 258.27461002 27.29666034 258.97545097 C27.28836241 269.99136296 27.2630283 281.00716628 27.23054554 292.02303084 C27.19744691 303.34028145 27.17979347 314.65745745 27.17626792 325.97476369 C27.17391699 332.32599827 27.16495055 338.67706102 27.13980675 345.02824974 C27.11652954 351.00448343 27.11229159 356.9804321 27.12256813 362.95669937 C27.12306367 365.14762253 27.11673787 367.33855971 27.10301208 369.52943993 C27.0852918 372.52607571 27.09240045 375.52168878 27.10554504 378.51832581 C27.0945758 379.38040891 27.08360655 380.24249202 27.0723049 381.13069886 C27.14994445 388.48804687 29.44862576 394.66457786 33.84329224 400.57992554 C40.79256031 407.3712557 49.91887011 409.57998527 59.46461487 409.52571106 C60.22701463 409.52938676 60.9894144 409.53306247 61.77491719 409.53684956 C64.31397283 409.54678038 66.85280733 409.54268848 69.39187622 409.53866577 C71.219144 409.54305592 73.04640977 409.54835912 74.87367249 409.55450439 C78.80285807 409.56598728 82.73198985 409.5714626 86.66119194 409.57238579 C92.8873112 409.57433198 99.11331997 409.59241781 105.33940125 409.61314392 C120.81057701 409.66226743 136.28178287 409.69314786 151.75302124 409.71444702 C163.76685786 409.73101533 175.78059973 409.75397043 187.7943731 409.79746777 C193.9693153 409.81911887 200.14407699 409.82731361 206.31905448 409.82507503 C210.18213926 409.82675548 214.04510872 409.84088815 217.90815163 409.85828781 C219.68330411 409.86383301 221.45848106 409.86442348 223.23363495 409.8593502 C255.17469938 409.77772335 283.24230319 420.25873141 306.14797974 442.77914429 C328.77684944 465.80564589 340.94936088 493.22349925 340.85398865 525.54849243 C340.85701585 526.95400499 340.86090817 528.3595159 340.86558121 529.76502395 C340.87579682 533.59498747 340.87369596 537.42485671 340.86940062 541.25482774 C340.86692158 545.39812094 340.87596216 549.54139213 340.88343811 553.68467712 C340.89615497 561.78977726 340.89798253 569.89484421 340.89563785 577.99995264 C340.89385099 584.59230565 340.8956122 591.18464862 340.89986229 597.77700043 C340.90045748 598.71715316 340.90105267 599.6573059 340.90166589 600.62594812 C340.90287771 602.53621501 340.90409185 604.4464819 340.90530827 606.35674879 C340.9161724 624.25174875 340.91402678 642.14672984 340.90792342 660.04173085 C340.90275643 676.38726139 340.91400598 692.73273229 340.93302164 709.07825103 C340.95242731 725.8887783 340.96065119 742.6992774 340.95689839 759.50981593 C340.95499034 768.93680328 340.95743512 778.3637399 340.97161293 787.79071808 C340.98356261 795.81699253 340.98489164 803.84318502 340.97282276 811.86946067 C340.96695889 815.95856756 340.96576499 820.04752481 340.97782516 824.13662148 C340.98876864 827.89096636 340.98548164 831.6450382 340.97156348 835.39937076 C340.96771107 837.37726536 340.9783941 839.3551725 340.98986036 841.33303761 C340.93469392 850.61320923 339.53170972 859.23412623 337.59329224 868.26742554 C337.44053733 869.04274636 337.28778242 869.81806717 337.13039857 870.61688256 C331.56840824 896.26754779 311.55048074 921.50831055 290.03079224 935.82992554 C287.58953463 937.38060669 285.11024309 938.84335264 282.59329224 940.26742554 C281.63688843 940.81366577 281.63688843 940.81366577 280.66116333 941.37094116 C264.82928103 950.24215264 247.11885904 955.58179196 228.91615295 955.54830933 C227.37396185 955.55722269 227.37396185 955.55722269 225.80061537 955.56631613 C222.37983006 955.5835605 218.95918581 955.58669559 215.5383606 955.58969116 C213.0750143 955.59895717 210.61167085 955.60900778 208.14833069 955.61978149 C201.46976596 955.64595141 194.79125577 955.6589812 188.11265254 955.66780281 C183.92968099 955.67335123 179.74671852 955.68183044 175.56375313 955.69081116 C163.94744799 955.71518844 152.33115006 955.73578401 140.71481991 955.74256134 C139.97268691 955.74300047 139.23055392 955.7434396 138.46593205 955.74389204 C137.72216274 955.7443286 136.97839343 955.74476515 136.21208566 955.74521494 C134.70528408 955.74610182 133.19848249 955.74699495 131.69168091 955.74789429 C130.94427753 955.74833715 130.19687416 955.74878001 129.42682219 955.74923629 C117.35183039 955.75711013 105.2770816 955.7919537 93.20218342 955.83861333 C80.75917008 955.88630063 68.3162779 955.91097701 55.87317187 955.91329718 C48.9055316 955.91511697 41.93820746 955.92626853 34.97065544 955.9629364 C28.40164734 955.99738817 21.8331263 956.00005212 15.26401711 955.98265839 C12.87339546 955.9811347 10.48273969 955.98957337 8.09220123 956.00957489 C-11.48994263 956.16360144 -30.59414656 953.92774435 -48.40670776 945.26742554 C-49.32838745 944.82140991 -50.25006714 944.37539429 -51.19967651 943.91586304 C-83.09164598 926.9553703 -102.27366537 899.5258162 -113.29342651 865.71273804 C-116.73928704 853.06743512 -116.68635818 840.30529381 -116.63375854 827.31869507 C-116.63319326 825.34621181 -116.63351328 823.37372813 -116.63464355 821.40124512 C-116.63521348 816.08815642 -116.62351791 810.77515945 -116.60949564 805.46209192 C-116.59692782 799.89410533 -116.59581303 794.32611626 -116.59344482 788.75811768 C-116.58724775 778.23293833 -116.57086109 767.70780091 -116.55074584 757.18263996 C-116.52413402 742.94683375 -116.51339987 728.71101595 -116.50174141 714.47519112 C-116.4829791 692.07257123 -116.44312162 669.67003979 -116.40670776 647.26742554 C-69.21670776 647.26742554 -22.02670776 647.26742554 26.59329224 647.26742554 C26.63067505 657.93055054 26.66805786 668.59367554 26.70657349 679.57992554 C26.73684815 686.3338448 26.76787102 693.08774689 26.80227661 699.84164429 C26.85675129 710.56249434 26.90816477 721.28329668 26.93972778 732.00424194 C26.96272978 739.81250532 26.99615238 747.62064334 27.0419938 755.42880726 C27.06589637 759.56168784 27.08464455 763.6944445 27.09090614 767.82739258 C27.09697046 771.72132288 27.11701863 775.61493623 27.14756775 779.50874901 C27.15632646 780.93409204 27.16007506 782.35947652 27.1583004 783.78484535 C27.14847154 795.32679975 28.6427926 803.5412674 36.59329224 812.26742554 C44.41117576 818.58826753 52.25480863 818.56556694 61.88748169 818.55795288 C63.11114441 818.5646701 64.33480713 818.57138733 65.59555054 818.57830811 C68.93668634 818.59400494 72.27757347 818.60066042 75.61872888 818.60193968 C77.71088415 818.60336598 79.80301372 818.6076446 81.89516258 818.61293411 C89.20756039 818.63141086 96.51988553 818.63960772 103.83230591 818.63803101 C110.62667915 818.63683037 117.42073434 818.65792323 124.21502715 818.68951833 C130.06667126 818.71575101 135.91821194 818.72639538 141.76991433 818.72512019 C145.25674565 818.72461258 148.74329406 818.73018296 152.2300663 818.75147629 C156.12380795 818.77460806 160.01712024 818.7652951 163.91091919 818.75326538 C165.05151291 818.76450439 166.19210663 818.77574341 167.36726379 818.787323 C175.75317084 818.72171272 182.94101889 817.36391816 189.46829224 811.82992554 C190.16954224 810.98430054 190.87079224 810.13867554 191.59329224 809.26742554 C192.31516724 808.52492554 193.03704224 807.78242554 193.78079224 807.01742554 C197.93904464 800.70835293 197.88744617 792.97095475 197.86071777 785.62789917 C197.86751444 784.23543999 197.86751444 784.23543999 197.87444842 782.81485033 C197.88703563 779.72672479 197.88547575 776.6387769 197.88381958 773.55062866 C197.88980821 771.32747676 197.89661453 769.10432693 197.9041748 766.88117981 C197.92180385 760.85856209 197.92652877 754.83600124 197.92780638 748.81336021 C197.92922982 745.04845466 197.933503 741.28356348 197.93880081 737.5186615 C197.95633496 725.05580127 197.96564235 712.59296866 197.96413986 700.13009757 C197.96405995 699.45950271 197.96398004 698.78890786 197.96389771 698.09799194 C197.96377506 697.09086307 197.96377506 697.09086307 197.96364994 696.06338817 C197.96283667 685.17711721 197.98199006 674.29098448 198.01017444 663.40475351 C198.03892919 652.20938933 198.05234745 641.01407574 198.05098689 629.8186698 C198.05047728 623.54017788 198.05616032 617.26184264 198.07734299 610.98338318 C198.09671767 605.0801176 198.09685484 599.17715835 198.08230972 593.27388191 C198.08021988 591.11037307 198.0849329 588.94684509 198.09703064 586.78336906 C198.11250338 583.82420471 198.10316132 580.86609412 198.08776855 577.9069519 C198.10319924 576.63061599 198.10319924 576.63061599 198.11894166 575.3284955 C198.02231663 566.89155163 194.93934105 559.96962211 189.23001099 553.77133179 C182.64440588 547.72011946 175.41843842 547.11796073 166.80184937 547.12266541 C166.03607063 547.11913856 165.2702919 547.11561171 164.48130774 547.11197799 C161.9252052 547.10133653 159.36913999 547.09761796 156.8130188 547.09384155 C154.97616419 547.08753269 153.1393111 547.08076651 151.30245972 547.07357788 C147.35088672 547.05893003 143.39931954 547.04719627 139.44773102 547.03763008 C133.19395702 547.02214905 126.94023318 546.99819938 120.68649292 546.97273254 C102.90448174 546.90160754 85.12244198 546.84178882 67.34036255 546.7906189 C57.5163244 546.7622743 47.69233632 546.72687154 37.86835074 546.68396515 C31.65749769 546.65726256 25.44670124 546.63931452 19.23580217 546.6279279 C15.36319188 546.61877065 11.49065009 546.60139417 7.61808014 546.58174896 C5.82912275 546.57430634 4.04014774 546.57019439 2.25117493 546.56975365 C-15.00918785 546.56207077 -15.00918785 546.56207077 -23.40670776 544.26742554 C-25.05412964 543.84203491 -25.05412964 543.84203491 -26.73483276 543.40805054 C-44.58127011 537.96822739 -59.59269021 529.51920007 -74.40670776 518.26742554 C-75.43795776 517.50430054 -76.46920776 516.74117554 -77.53170776 515.95492554 C-81.98278755 511.79413356 -85.63180536 507.03746917 -89.40670776 502.26742554 C-90.30582886 501.20201538 -90.30582886 501.20201538 -91.22311401 500.11508179 C-103.31513705 485.49804234 -110.32811758 468.09579164 -113.92249238 449.65444052 C-114.23024805 448.13731114 -114.56097011 446.6245234 -114.92216265 445.11922109 C-116.56797429 437.94567622 -116.69244064 431.00827454 -116.6741333 423.67138672 C-116.67787637 422.31582334 -116.6824805 420.96026212 -116.68786395 419.60470426 C-116.70002904 415.90336558 -116.69984118 412.20211773 -116.69747519 408.50076365 C-116.69706535 404.49914219 -116.70812233 400.4975492 -116.71759033 396.49594116 C-116.73416757 388.66328438 -116.73969847 380.83065771 -116.74081509 372.99798484 C-116.74176748 366.62443933 -116.74588734 360.25090369 -116.75221634 353.8773613 C-116.76982279 335.77636665 -116.77905659 317.67539566 -116.77755539 299.57439239 C-116.77747548 298.59959235 -116.77739557 297.62479232 -116.77731323 296.62045288 C-116.77723147 295.64445123 -116.77714971 294.66844958 -116.77706547 293.66287212 C-116.7762536 277.86632092 -116.79536797 262.06986531 -116.82358997 246.27334173 C-116.85239105 230.02334347 -116.86612617 213.77339169 -116.86440241 197.52336729 C-116.86374082 188.41254665 -116.86913106 179.30182612 -116.89075851 170.19102859 C-116.90906605 162.42940471 -116.91324006 154.66792626 -116.89973967 146.90629001 C-116.89325681 142.95437099 -116.89292043 139.00273017 -116.91044617 135.05083847 C-116.97810659 118.77164324 -116.75334796 103.07141102 -112.40670776 87.26742554 C-112.21707923 86.57386247 -112.02745069 85.8802994 -111.83207583 85.16571927 C-107.4943404 69.62182027 -99.67860083 55.65834549 -89.40670776 43.26742554 C-88.71061401 42.41922241 -88.01452026 41.57101929 -87.29733276 40.69711304 C-65.8734068 15.75465909 -33.01793528 -0.11373522 0 0 Z " fill="#FCFDFC" transform="translate(304.4067077636719,187.73257446289063)"/>
<path d="M0 0 C-3.16592849 3.16592849 -5.96550239 3.12613318 -10.23791504 3.13371277 C-11.32312943 3.13797775 -12.40834381 3.14224274 -13.52644348 3.14663696 C-15.31256294 3.14595718 -15.31256294 3.14595718 -17.13476562 3.14526367 C-19.01551033 3.15030159 -19.01551033 3.15030159 -20.93424988 3.15544128 C-24.37426509 3.1633212 -27.81421995 3.16661926 -31.25424004 3.16725707 C-34.1246646 3.16820633 -36.99508336 3.17188471 -39.8655057 3.17542917 C-46.6357633 3.18357238 -53.4060076 3.18601347 -60.17626953 3.18530273 C-67.1648667 3.18470152 -74.15338678 3.19526234 -81.14196444 3.2110464 C-87.1394781 3.22411038 -93.13696652 3.22948713 -99.1344943 3.22884732 C-102.71776762 3.22859206 -106.3009724 3.23145905 -109.88423157 3.24202538 C-113.87793001 3.25348067 -117.87152215 3.24896655 -121.86523438 3.24291992 C-123.05598068 3.24853943 -124.24672699 3.25415894 -125.47355652 3.25994873 C-126.5587709 3.25575424 -127.64398529 3.25155975 -128.76208496 3.24723816 C-129.70671349 3.24778293 -130.65134201 3.24832769 -131.62459564 3.24888897 C-134 3 -134 3 -137 1 C-136.36039243 1.00092179 -135.72078485 1.00184359 -135.06179523 1.00279331 C-119.49624304 1.02488099 -103.93069631 1.0414274 -88.36513233 1.05181217 C-80.83773549 1.05696769 -73.31034911 1.06399624 -65.78295898 1.07543945 C-59.22182654 1.08540899 -52.66070168 1.09185885 -46.09956187 1.09408849 C-42.62574525 1.09539174 -39.15195031 1.0984532 -35.67814064 1.10573006 C-31.79950175 1.11378899 -27.92088403 1.11398967 -24.04223633 1.11352539 C-22.89137039 1.11712067 -21.74050446 1.12071594 -20.55476379 1.12442017 C-19.49612122 1.1230455 -18.43747864 1.12167084 -17.34675598 1.12025452 C-15.97097995 1.12163721 -15.97097995 1.12163721 -14.56741047 1.12304783 C-9.6142357 0.8856579 -5.0301687 -0.09863076 0 0 Z " fill="#252623" transform="translate(985,1004)"/>
<path d="M0 0 C-3.2195845 1.90051047 -5.5847372 2.24785625 -9.3024292 2.24050903 C-10.91357353 2.24463303 -10.91357353 2.24463303 -12.55726624 2.24884033 C-13.73042892 2.24164978 -14.90359161 2.23445923 -16.11230469 2.22705078 C-17.97123604 2.22748886 -17.97123604 2.22748886 -19.86772156 2.22793579 C-23.26210007 2.22678149 -26.65623507 2.21675359 -30.05057049 2.20278788 C-33.59931915 2.19028225 -37.14807108 2.18911015 -40.69683838 2.18673706 C-47.41514543 2.18052179 -54.13338736 2.16411036 -60.85166574 2.14403808 C-68.50093873 2.12168053 -76.15021485 2.11068601 -83.79951239 2.10064721 C-99.53304597 2.07974416 -115.26651458 2.04456729 -131 2 C-131 1.67 -131 1.34 -131 1 C-130.39923393 0.99576806 -129.79846786 0.99153612 -129.17949677 0.98717594 C-114.53916524 0.88372216 -99.8988787 0.77506287 -85.25862885 0.66066074 C-78.17862035 0.6054606 -71.09860682 0.55200088 -64.01855469 0.50268555 C-57.1844976 0.45507872 -50.35049223 0.40255936 -43.51649475 0.34705925 C-40.910662 0.32669683 -38.3048159 0.30797386 -35.69895935 0.29092598 C-32.04600204 0.26674636 -28.39313588 0.23671067 -24.74023438 0.20532227 C-23.66560944 0.1995668 -22.5909845 0.19381134 -21.48379517 0.18788147 C-17.09675768 0.145103 -12.80515296 0.04491546 -8.45373535 -0.54017639 C-5.23958408 -0.96810224 -3.09183497 -0.86957859 0 0 Z " fill="#212322" transform="translate(485,1005)"/>
<path d="M0 0 C0 0.66 0 1.32 0 2 C2.31 1.34 4.62 0.68 7 0 C3.23454881 4.08345474 -0.65644902 6.88941733 -5.4375 9.6875 C-6.08009766 10.07744141 -6.72269531 10.46738281 -7.38476562 10.86914062 C-11.15772803 13.10993556 -14.75483736 14.77303646 -19 16 C-19 15.01 -19 14.02 -19 13 C-17.68 12.67 -16.36 12.34 -15 12 C-15 11.34 -15 10.68 -15 10 C-15.66 10 -16.32 10 -17 10 C-17 9.34 -17 8.68 -17 8 C-16.278125 8.020625 -15.55625 8.04125 -14.8125 8.0625 C-12.08074862 8.00179441 -9.65743909 7.60741465 -7 7 C-7 5.35 -7 3.7 -7 2 C-4.35261084 0.5393715 -3.10551666 0 0 0 Z " fill="#EEEEEB" transform="translate(593,1118)"/>
<path d="M0 0 C4.62 0 9.24 0 14 0 C13.67 1.32 13.34 2.64 13 4 C13.66 4.33 14.32 4.66 15 5 C15.33 5.99 15.66 6.98 16 8 C12.37332639 9.2088912 11.50778047 8.67992092 8.0625 7.25 C7.20785156 6.90453125 6.35320313 6.5590625 5.47265625 6.203125 C3.05322305 5.02589684 1.08847583 3.68628675 -1 2 C-0.67 1.34 -0.34 0.68 0 0 Z " fill="#F6F6F4" transform="translate(747,1126)"/>
<path d="M0 0 C0.99 0.33 1.98 0.66 3 1 C-0.51513281 7.70629026 -4.55991363 13.87088942 -9 20 C-9.33 19.01 -9.66 18.02 -10 17 C-10.66 16.67 -11.32 16.34 -12 16 C-11.01 15.67 -10.02 15.34 -9 15 C-9 14.34 -9 13.68 -9 13 C-8.34 13 -7.68 13 -7 13 C-7 10.69 -7 8.38 -7 6 C-6.34 6 -5.68 6 -5 6 C-4.67 5.34 -4.34 4.68 -4 4 C-2.68671343 2.64691687 -1.35500919 1.31129922 0 0 Z " fill="#E7E8E5" transform="translate(1127,1080)"/>
<path d="M0 0 C0.66 0 1.32 0 2 0 C1.34 1.98 0.68 3.96 0 6 C0.66 6.33 1.32 6.66 2 7 C2 9.64 2 12.28 2 15 C1.01 15.495 1.01 15.495 0 16 C0.5259375 16.86625 0.5259375 16.86625 1.0625 17.75 C2.14917407 20.35801776 1.93065133 21.39417629 1 24 C0.01 24 -0.98 24 -2 24 C-2.05787784 20.37506666 -2.0935542 16.75025143 -2.125 13.125 C-2.14175781 12.09246094 -2.15851563 11.05992187 -2.17578125 9.99609375 C-2.18222656 9.00996094 -2.18867188 8.02382813 -2.1953125 7.0078125 C-2.20578613 6.09660645 -2.21625977 5.18540039 -2.22705078 4.24658203 C-2 2 -2 2 0 0 Z " fill="#F4F8F4" transform="translate(505,884)"/>
<path d="M0 0 C0.33 0 0.66 0 1 0 C1.06058594 1.14597656 1.12117187 2.29195312 1.18359375 3.47265625 C1.26806989 5.00261297 1.35271427 6.53256041 1.4375 8.0625 C1.47681641 8.81466797 1.51613281 9.56683594 1.55664062 10.34179688 C1.81568921 14.94489091 2.3351011 19.43436089 3 24 C3.10751986 26.6793948 3.0470821 29.31632049 3 32 C2.34 32 1.68 32 1 32 C1 34.97 1 37.94 1 41 C0.67 41 0.34 41 0 41 C0 27.47 0 13.94 0 0 Z " fill="#E2E1DB" transform="translate(687,1000)"/>
<path d="M0 0 C0.928125 0.5259375 0.928125 0.5259375 1.875 1.0625 C2.57625 1.371875 3.2775 1.68125 4 2 C4.66 1.67 5.32 1.34 6 1 C6.66 2.32 7.32 3.64 8 5 C7.34 5 6.68 5 6 5 C6.33 5.99 6.66 6.98 7 8 C6.5625 10.6875 6.5625 10.6875 6 13 C2.67148787 10.01581671 0.6794271 7.15437231 -1 3 C-0.67 2.01 -0.34 1.02 0 0 Z " fill="#EDEDEA" transform="translate(202,1076)"/>
<path d="M0 0 C2.0625 0.4375 2.0625 0.4375 4 1 C4 1.66 4 2.32 4 3 C1.87767021 4.17176518 -0.24757791 5.33754785 -2.375 6.5 C-2.97828125 6.83386719 -3.5815625 7.16773438 -4.203125 7.51171875 C-8.7734375 10 -8.7734375 10 -11 10 C-11.33 9.01 -11.66 8.02 -12 7 C-11.21753906 6.57847656 -10.43507813 6.15695312 -9.62890625 5.72265625 C-8.61699219 5.17480469 -7.60507813 4.62695312 -6.5625 4.0625 C-5.55316406 3.51722656 -4.54382812 2.97195313 -3.50390625 2.41015625 C-1.13329507 1.22300532 -1.13329507 1.22300532 0 0 Z " fill="#E3E4E0" transform="translate(1083,1124)"/>
<path d="M0 0 C4.62 1.32 9.24 2.64 14 4 C10 7 10 7 7.75 6.6875 C7.1725 6.460625 6.595 6.23375 6 6 C6 6.66 6 7.32 6 8 C5.34 8 4.68 8 4 8 C4 7.34 4 6.68 4 6 C3.01 6 2.02 6 1 6 C1 5.01 1 4.02 1 3 C0.34 3 -0.32 3 -1 3 C-0.67 2.01 -0.34 1.02 0 0 Z " fill="#F4F5EF" transform="translate(844,1004)"/>
<path d="M0 0 C0.66 0 1.32 0 2 0 C1.34 1.65 0.68 3.3 0 5 C0.66 5 1.32 5 2 5 C2 4.34 2 3.68 2 3 C3.65 2.67 5.3 2.34 7 2 C8.125 7.75 8.125 7.75 7 10 C2.44328408 8.48109469 -1.31723292 6.04597738 -5 3 C-5 2.67 -5 2.34 -5 2 C-3.35 2 -1.7 2 0 2 C0 1.34 0 0.68 0 0 Z " fill="#E2E5E1" transform="translate(243,1119)"/>
<path d="M0 0 C3.3 0 6.6 0 10 0 C8.74458443 2.51083114 7.49936512 2.87125446 5 4 C5 4.66 5 5.32 5 6 C-1.93 5.505 -1.93 5.505 -9 5 C-9 4.67 -9 4.34 -9 4 C-6.03 3.34 -3.06 2.68 0 2 C0 1.34 0 0.68 0 0 Z " fill="#0F100E" transform="translate(1043,593)"/>
<path d="M0 0 C0.33 0.66 0.66 1.32 1 2 C0.67 2.66 0.34 3.32 0 4 C0.66 4.33 1.32 4.66 2 5 C2.28571429 13.57142857 2.28571429 13.57142857 0 17 C-0.66 17 -1.32 17 -2 17 C-2 11.72 -2 6.44 -2 1 C-1.34 0.67 -0.68 0.34 0 0 Z " fill="#F3F6F2" transform="translate(505,923)"/>
<path d="M0 0 C0 0.66 0 1.32 0 2 C2.31 1.34 4.62 0.68 7 0 C4.82779645 2.73277221 3.14172035 4.72888915 -0.3359375 5.5546875 C-2.56274452 5.78650022 -4.76217118 5.94637012 -7 6 C-6.67 4.35 -6.34 2.7 -6 1 C-3 0 -3 0 0 0 Z " fill="#EFEFEE" transform="translate(593,1118)"/>
<path d="M0 0 C-3.71374696 2.40644141 -7.33848834 2.25818641 -11.609375 2.1953125 C-12.33618469 2.1924826 -13.06299438 2.18965271 -13.81182861 2.18673706 C-16.12472251 2.17557523 -18.43722388 2.15047851 -20.75 2.125 C-22.32160898 2.11496501 -23.89322404 2.10584006 -25.46484375 2.09765625 C-29.31004622 2.07564904 -33.15495664 2.04114715 -37 2 C-37 1.67 -37 1.34 -37 1 C-35.97229492 0.96241577 -35.97229492 0.96241577 -34.92382812 0.92407227 C-31.7824065 0.80714393 -28.64121452 0.68486126 -25.5 0.5625 C-23.88351562 0.50352539 -23.88351562 0.50352539 -22.234375 0.44335938 C-17.59657769 0.25954424 -13.00818435 0.06067861 -8.40625 -0.5625 C-5.22394402 -0.97123655 -3.06213806 -0.86122633 0 0 Z " fill="#222023" transform="translate(485,1005)"/>
<path d="M0 0 C-0.639375 0.28875 -1.27875 0.5775 -1.9375 0.875 C-4.15206079 1.82823451 -4.15206079 1.82823451 -5 4 C-5.66 4 -6.32 4 -7 4 C-7 3.34 -7 2.68 -7 2 C-7.66 2 -8.32 2 -9 2 C-9.33 2.99 -9.66 3.98 -10 5 C-10.99 5 -11.98 5 -13 5 C-13 5.66 -13 6.32 -13 7 C-13.66 7 -14.32 7 -15 7 C-15.103125 6.360625 -15.20625 5.72125 -15.3125 5.0625 C-15.539375 4.381875 -15.76625 3.70125 -16 3 C-16.99 2.67 -17.98 2.34 -19 2 C-16.20962572 1.47120316 -13.41807402 0.95165912 -10.625 0.4375 C-9.8309375 0.28603516 -9.036875 0.13457031 -8.21875 -0.02148438 C-2.2265625 -1.11328125 -2.2265625 -1.11328125 0 0 Z " fill="#1B1C1B" transform="translate(1054,1141)"/>
<path d="M0 0 C1.98 0.99 1.98 0.99 4 2 C4.0272415 3.41655793 4.04650467 4.83327045 4.0625 6.25 C4.07410156 7.03890625 4.08570313 7.8278125 4.09765625 8.640625 C4.00385306 10.90691002 3.63241063 12.8288895 3 15 C2.01 14.67 1.02 14.34 0 14 C0 9.38 0 4.76 0 0 Z " fill="#F3F7F1" transform="translate(503,860)"/>
<path d="M0 0 C1.45184478 4.53701494 2.23509196 8.18061476 2 13 C-1.33511388 10.0098979 -3.21521119 7.10501426 -5 3 C-5 2.34 -5 1.68 -5 1 C-2 0 -2 0 0 0 Z " fill="#1B1D1B" transform="translate(337,576)"/>
<path d="M0 0 C0.66 0.33 1.32 0.66 2 1 C0.02 4.96 -1.96 8.92 -4 13 C-5.32 12.67 -6.64 12.34 -8 12 C-7.01 9.69 -6.02 7.38 -5 5 C-4.34 5 -3.68 5 -3 5 C-3 4.34 -3 3.68 -3 3 C-1.5 1.375 -1.5 1.375 0 0 Z " fill="#F2F2EE" transform="translate(635,1070)"/>
<path d="M0 0 C0.66 0.66 1.32 1.32 2 2 C0.52464063 4.00291212 -0.95502293 6.00236777 -2.4375 8 C-2.85837891 8.57234375 -3.27925781 9.1446875 -3.71289062 9.734375 C-4.78444136 11.17453919 -5.88966676 12.58951996 -7 14 C-7.33 14 -7.66 14 -8 14 C-7.74473736 9.66053508 -7.45510245 7.52511821 -4.5625 4.1875 C-3.716875 3.465625 -2.87125 2.74375 -2 2 C-1.34 1.34 -0.68 0.68 0 0 Z " fill="#1A1B18" transform="translate(216,226)"/>
<path d="M0 0 C2.97 0 5.94 0 9 0 C9.33 0.99 9.66 1.98 10 3 C9.01 3.33 8.02 3.66 7 4 C8.32 4.66 9.64 5.32 11 6 C11 6.66 11 7.32 11 8 C6.76570244 6.68938409 2.92592596 5.05643741 -1 3 C-0.67 2.01 -0.34 1.02 0 0 Z " fill="#DEDEDC" transform="translate(747,1126)"/>
<path d="M0 0 C2.475 0.99 2.475 0.99 5 2 C5 3.32 5 4.64 5 6 C5.99 5.67 6.98 5.34 8 5 C7.39816251 7.02045442 6.72693904 9.02111039 6 11 C5.01 11.495 5.01 11.495 4 12 C3.13624104 10.38007835 2.28424146 8.75388139 1.4375 7.125 C0.72400391 5.76761719 0.72400391 5.76761719 -0.00390625 4.3828125 C-0.33261719 3.59648438 -0.66132812 2.81015625 -1 2 C-0.67 1.34 -0.34 0.68 0 0 Z " fill="#ECECE8" transform="translate(698,1073)"/>
<path d="M0 0 C1.57554035 2.88628401 2.46276373 5.53342384 3.125 8.75 C3.29257812 9.54921875 3.46015625 10.3484375 3.6328125 11.171875 C3.81457031 12.07679687 3.81457031 12.07679687 4 13 C3.01 13 2.02 13 1 13 C0.67 13.99 0.34 14.98 0 16 C-1.1875 14.3125 -1.1875 14.3125 -2 12 C-0.625 9.25 -0.625 9.25 1 7 C0.34 7 -0.32 7 -1 7 C-0.67 4.69 -0.34 2.38 0 0 Z " fill="#1E1E1B" transform="translate(690,1055)"/>
<path d="M0 0 C1.98 0.99 1.98 0.99 4 2 C3.03644647 12.55808656 3.03644647 12.55808656 2 17 C1.34 17 0.68 17 0 17 C0 11.39 0 5.78 0 0 Z " fill="#F4F7F3" transform="translate(503,819)"/>
<path d="M0 0 C0.103125 0.639375 0.20625 1.27875 0.3125 1.9375 C0.539375 2.618125 0.76625 3.29875 1 4 C1.99 4.33 2.98 4.66 4 5 C3.54625 5.721875 3.0925 6.44375 2.625 7.1875 C1.14505642 9.74894081 0.02782461 12.23277989 -1 15 C-2.65 15 -4.3 15 -6 15 C-5.65066406 14.41992188 -5.30132812 13.83984375 -4.94140625 13.2421875 C-2.36970109 8.82730556 -0.40004495 5.20058437 0 0 Z " fill="#E8ECE8" transform="translate(502,983)"/>
<path d="M0 0 C2.97 0 5.94 0 9 0 C8.67 0.99 8.34 1.98 8 3 C8.99 3.66 9.98 4.32 11 5 C6.71 4.67 2.42 4.34 -2 4 C-1.34 2.68 -0.68 1.36 0 0 Z " fill="#1F1E1C" transform="translate(1036,185)"/>
<path d="M0 0 C0.375 2.1875 0.375 2.1875 0 5 C-2.75 7.875 -2.75 7.875 -6 10 C-8.203125 9.6328125 -8.203125 9.6328125 -10 9 C-8.52386015 7.49702124 -7.04400843 5.99768715 -5.5625 4.5 C-4.73878906 3.6646875 -3.91507813 2.829375 -3.06640625 1.96875 C-1 0 -1 0 0 0 Z " fill="#21231F" transform="translate(617,1103)"/>
<path d="M0 0 C0.99 0.66 1.98 1.32 3 2 C3 2.66 3 3.32 3 4 C-4.59 4 -12.18 4 -20 4 C-20 3.67 -20 3.34 -20 3 C-18.9275 2.855625 -17.855 2.71125 -16.75 2.5625 C-13.26592425 2.14369113 -13.26592425 2.14369113 -11.0625 1.375 C-7.64533606 0.75369747 -4.41856341 1.48721549 -1 2 C-0.67 1.34 -0.34 0.68 0 0 Z " fill="#0A0907" transform="translate(288,831)"/>
<path d="M0 0 C2 2 2 2 2.1953125 5.2578125 C2.17210937 6.53398438 2.14890625 7.81015625 2.125 9.125 C2.10695313 10.40632812 2.08890625 11.68765625 2.0703125 13.0078125 C2.04710937 13.99523437 2.02390625 14.98265625 2 16 C1.34 16 0.68 16 0 16 C-2.28571429 4.57142857 -2.28571429 4.57142857 0 0 Z " fill="#080905" transform="translate(500,806)"/>
<path d="M0 0 C-0.66 1.32 -1.32 2.64 -2 4 C-2.99 3.67 -3.98 3.34 -5 3 C-5 3.99 -5 4.98 -5 6 C-7.46800047 4.84826645 -9.04783565 3.95216435 -11 2 C-7.36576791 -0.32590854 -4.22911669 -0.16265833 0 0 Z " fill="#EAEAE8" transform="translate(745,1118)"/>
<path d="M0 0 C0.33 0 0.66 0 1 0 C1.77313045 5.9114744 2.14819277 11.1314592 1 17 C0.34 17 -0.32 17 -1 17 C-1.02684679 14.35409986 -1.04676357 11.70846904 -1.0625 9.0625 C-1.07087891 8.30775391 -1.07925781 7.55300781 -1.08789062 6.77539062 C-1.09652441 4.85005687 -1.05224333 2.92464419 -1 1 C-0.67 0.67 -0.34 0.34 0 0 Z " fill="#F8F7F4" transform="translate(689,590)"/>
<path d="M0 0 C2.00948183 0.01778303 4.01668765 0.16786374 6.01953125 0.33203125 C5.30859375 2.28515625 5.30859375 2.28515625 4.01953125 4.33203125 C1.85546875 4.94140625 1.85546875 4.94140625 -0.60546875 5.08203125 C-1.42273438 5.13875 -2.24 5.19546875 -3.08203125 5.25390625 C-3.70851563 5.2796875 -4.335 5.30546875 -4.98046875 5.33203125 C-3.05235036 0.51173527 -3.05235036 0.51173527 0 0 Z " fill="#121310" transform="translate(289.98046875,184.66796875)"/>
<path d="M0 0 C0.99 0.33 1.98 0.66 3 1 C0.80528594 5.51135667 -1.41173718 7.06273348 -6 9 C-6.33 8.01 -6.66 7.02 -7 6 C-6.34 6 -5.68 6 -5 6 C-4.67 5.34 -4.34 4.68 -4 4 C-2.68671343 2.64691687 -1.35500919 1.31129922 0 0 Z " fill="#F2F2EF" transform="translate(1127,1080)"/>
<path d="M0 0 C0.99 0.33 1.98 0.66 3 1 C3.33 3.97 3.66 6.94 4 10 C2.68 10.33 1.36 10.66 0 11 C0 7.33333333 0 3.66666667 0 0 Z " fill="#100F0E" transform="translate(684,1035)"/>
<path d="M0 0 C1.98 0.99 1.98 0.99 4 2 C3.649375 2.928125 3.29875 3.85625 2.9375 4.8125 C1.67617372 7.9802953 1.67617372 7.9802953 3 11 C2.67 11.66 2.34 12.32 2 13 C1.34 13 0.68 13 0 13 C0 8.71 0 4.42 0 0 Z " fill="#F4F7F1" transform="translate(503,968)"/>
<path d="M0 0 C1.2077558 3.62326739 0.54311128 4.64146369 -1 8 C-1.66 8 -2.32 8 -3 8 C-3.33 8.99 -3.66 9.98 -4 11 C-6.5625 12.1875 -6.5625 12.1875 -9 13 C-8.06398754 11.58235006 -7.1261208 10.16592432 -6.1875 8.75 C-5.66542969 7.96109375 -5.14335938 7.1721875 -4.60546875 6.359375 C-3.12865878 4.18907519 -1.59310127 2.08586232 0 0 Z " fill="#181916" transform="translate(626,1090)"/>
<path d="M0 0 C0.99 0.33 1.98 0.66 3 1 C3.73046875 2.84765625 3.73046875 2.84765625 4.1875 5.0625 C4.34605469 5.79597656 4.50460937 6.52945313 4.66796875 7.28515625 C4.83232422 8.13400391 4.83232422 8.13400391 5 9 C3.68 9.33 2.36 9.66 1 10 C-0.04005702 6.61981469 -0.08004482 3.5219721 0 0 Z " fill="#ECEFEB" transform="translate(329,983)"/>
<path d="M0 0 C0.66 0 1.32 0 2 0 C2 3.96 2 7.92 2 12 C1.01 12 0.02 12 -1 12 C-1.02712066 10.56260487 -1.04645067 9.12506137 -1.0625 7.6875 C-1.07410156 6.88699219 -1.08570313 6.08648438 -1.09765625 5.26171875 C-1 3 -1 3 0 0 Z " fill="#080A06" transform="translate(500,866)"/>
<path d="M0 0 C2 2 2 2 2.1953125 5.0390625 C2.17210937 6.22242188 2.14890625 7.40578125 2.125 8.625 C2.10695313 9.81351563 2.08890625 11.00203125 2.0703125 12.2265625 C2.04710937 13.14179687 2.02390625 14.05703125 2 15 C1.01 15 0.02 15 -1 15 C-0.67 10.05 -0.34 5.1 0 0 Z " fill="#090A06" transform="translate(500,782)"/>
<path d="M0 0 C0.99 0.33 1.98 0.66 3 1 C2.01 1.33 1.02 1.66 0 2 C0 1.34 0 0.68 0 0 Z M2 4 C2.33 4.99 2.66 5.98 3 7 C1.53932801 6.54917531 0.08151968 6.08906463 -1.375 5.625 C-2.18710937 5.36976563 -2.99921875 5.11453125 -3.8359375 4.8515625 C-6 4 -6 4 -8 2 C-3.61212635 0.62095399 -1.62046902 1.18407965 2 4 Z " fill="#D7D9D5" transform="translate(262,719)"/>
<path d="M0 0 C0.66 0.33 1.32 0.66 2 1 C2.33 0.67 2.66 0.34 3 0 C3.66 0.99 4.32 1.98 5 3 C3.515 5.475 3.515 5.475 2 8 C-2 3.25 -2 3.25 -2 1 C-1.34 0.67 -0.68 0.34 0 0 Z " fill="#E7EAE6" transform="translate(703,670)"/>
<path d="M0 0 C0.721875 0.268125 1.44375 0.53625 2.1875 0.8125 C-0.39034846 3.46002004 -2.72898098 5.75682065 -5.8125 7.8125 C-5.8125 7.1525 -5.8125 6.4925 -5.8125 5.8125 C-6.4725 5.4825 -7.1325 5.1525 -7.8125 4.8125 C-3.50480769 -0.23365385 -3.50480769 -0.23365385 0 0 Z " fill="#1D201F" transform="translate(232.8125,211.1875)"/>
<path d="M0 0 C1.80411967 2.75924185 2.0127245 3.88972103 1.625 7.25 C1.41875 8.1575 1.2125 9.065 1 10 C0.01 10.33 -0.98 10.66 -2 11 C-2 7.7 -2 4.4 -2 1 C-1.34 0.67 -0.68 0.34 0 0 Z " fill="#F4F6F1" transform="translate(505,844)"/>
<path d="M0 0 C0.66 1.32 1.32 2.64 2 4 C-0.90600261 5.25664978 -2.79604584 6 -6 6 C-5.67 4.35 -5.34 2.7 -5 1 C-3.35 0.67 -1.7 0.34 0 0 Z " fill="#E0E0DB" transform="translate(1064,1133)"/>
<path d="M0 0 C3 3 3 3 3.1875 6.1875 C3.125625 7.115625 3.06375 8.04375 3 9 C1.02 9.99 1.02 9.99 -1 11 C-0.67 7.37 -0.34 3.74 0 0 Z " fill="#191B19" transform="translate(996,746)"/>
<path d="M0 0 C2.31 0.66 4.62 1.32 7 2 C6.34 3.32 5.68 4.64 5 6 C3.02 6 1.04 6 -1 6 C-0.67 4.02 -0.34 2.04 0 0 Z " fill="#EFEFEE" transform="translate(562,602)"/>
<path d="M0 0 C0.66 0.66 1.32 1.32 2 2 C1.01 3.485 1.01 3.485 0 5 C0 6.010625 0 7.02125 0 8.0625 C0 9.031875 0 10.00125 0 11 C-0.66 11.66 -1.32 12.32 -2 13 C-2 12.01 -2 11.02 -2 10 C-2.99 10.33 -3.98 10.66 -5 11 C-3.77472971 6.94718288 -2.30119506 3.55639236 0 0 Z " fill="#DBDCD8" transform="translate(702,247)"/>
<path d="M0 0 C0.66666667 2.66666667 1.33333333 5.33333333 2 8 C-3.75 6.25 -3.75 6.25 -6 4 C-5.34 4 -4.68 4 -4 4 C-3.67 3.34 -3.34 2.68 -3 2 C-2.01 1.34 -1.02 0.68 0 0 Z " fill="#E4E6E2" transform="translate(256,1125)"/>
<path d="M0 0 C0.598125 0.20625 1.19625 0.4125 1.8125 0.625 C1.8125 1.285 1.8125 1.945 1.8125 2.625 C-3.9375 5.625 -3.9375 5.625 -6.1875 5.625 C-5.875 3.75 -5.875 3.75 -5.1875 1.625 C-2.1875 -0.375 -2.1875 -0.375 0 0 Z " fill="#EEEFEA" transform="translate(1085.1875,1124.375)"/>
<path d="M0 0 C0.66 0.33 1.32 0.66 2 1 C0.02 3.97 -1.96 6.94 -4 10 C-4.99 9.34 -5.98 8.68 -7 8 C-6.34 7.01 -5.68 6.02 -5 5 C-4.34 5 -3.68 5 -3 5 C-2.67 4.01 -2.34 3.02 -2 2 C-1.34 2 -0.68 2 0 2 C0 1.34 0 0.68 0 0 Z " fill="#E8E9E6" transform="translate(628,1084)"/>
<path d="M0 0 C0.99 0 1.98 0 3 0 C3 0.66 3 1.32 3 2 C3.99 1.67 4.98 1.34 6 1 C6.99 1.66 7.98 2.32 9 3 C6 5 6 5 4 6 C2.35 4.35 0.7 2.7 -1 1 C-0.67 0.67 -0.34 0.34 0 0 Z " fill="#E4E5E0" transform="translate(728,703)"/>
<path d="M0 0 C2.79872437 2.52788007 4.45773019 4.20411134 5 8 C2.69 7.67 0.38 7.34 -2 7 C-1.34 4.69 -0.68 2.38 0 0 Z " fill="#E3E4DE" transform="translate(1122,647)"/>
<path d="M0 0 C0 0.66 0 1.32 0 2 C0.66 2.33 1.32 2.66 2 3 C1.67 4.32 1.34 5.64 1 7 C-2.16115776 5.63016497 -2.9927092 5.0109362 -5 2 C-2 0 -2 0 0 0 Z " fill="#0E110E" transform="translate(1119,225)"/>
<path d="M0 0 C1.32 0.66 2.64 1.32 4 2 C3.67 2.33 3.34 2.66 3 3 C3.66 3.66 4.32 4.32 5 5 C1.7 5.33 -1.6 5.66 -5 6 C-3.35 4.02 -1.7 2.04 0 0 Z " fill="#201F1C" transform="translate(784,185)"/>
<path d="M0 0 C2.88437779 1.29299694 4.87219421 2.65941363 7 5 C3.66666667 5 0.33333333 5 -3 5 C-3 4.34 -3 3.68 -3 3 C-2.34 3 -1.68 3 -1 3 C-0.67 2.01 -0.34 1.02 0 0 Z " fill="#161614" transform="translate(734,711)"/>
<path d="M0 0 C0.66 0.33 1.32 0.66 2 1 C1.67 1.66 1.34 2.32 1 3 C1.66 3.33 2.32 3.66 3 4 C0.36 4.66 -2.28 5.32 -5 6 C-5 4.68 -5 3.36 -5 2 C-4.01 1.67 -3.02 1.34 -2 1 C-1.34 1.33 -0.68 1.66 0 2 C0 1.34 0 0.68 0 0 Z " fill="#EAEBE7" transform="translate(351,321)"/>
<path d="M0 0 C0.66 0.33 1.32 0.66 2 1 C3.26229508 5.47540984 3.26229508 5.47540984 2 8 C1.01 7.67 0.02 7.34 -1 7 C-1 5.68 -1 4.36 -1 3 C-1.66 3 -2.32 3 -3 3 C-3 2.34 -3 1.68 -3 1 C-2.01 0.67 -1.02 0.34 0 0 Z " fill="#ECECEA" transform="translate(248,1121)"/>
<path d="M0 0 C1.98 0 3.96 0 6 0 C6.33 1.65 6.66 3.3 7 5 C5.02 5 3.04 5 1 5 C0.67 3.35 0.34 1.7 0 0 Z " fill="#EFEFED" transform="translate(193,1057)"/>
<path d="M0 0 C1.21236328 0.04060547 1.21236328 0.04060547 2.44921875 0.08203125 C3.06410156 0.11683594 3.67898438 0.15164063 4.3125 0.1875 C3.9825 0.8475 3.6525 1.5075 3.3125 2.1875 C1.9925 1.8575 0.6725 1.5275 -0.6875 1.1875 C-0.6875 1.8475 -0.6875 2.5075 -0.6875 3.1875 C-2.6675 4.1775 -2.6675 4.1775 -4.6875 5.1875 C-5.6775 4.5275 -6.6675 3.8675 -7.6875 3.1875 C-5.26849268 0.20484049 -3.789448 -0.16475861 0 0 Z " fill="#F5F5EF" transform="translate(359.6875,1007.8125)"/>
<path d="M0 0 C1.99097846 2.98646769 2.94124926 5.59687262 4 9 C2.35 9.33 0.7 9.66 -1 10 C-1 9.34 -1 8.68 -1 8 C-0.34 8 0.32 8 1 8 C0.649375 7.05125 0.29875 6.1025 -0.0625 5.125 C-1 2 -1 2 0 0 Z " fill="#DFE1DC" transform="translate(830,986)"/>
<path d="M0 0 C3.63 0.33 7.26 0.66 11 1 C11 1.33 11 1.66 11 2 C9.02 2 7.04 2 5 2 C5 2.99 5 3.98 5 5 C3.68 4.67 2.36 4.34 1 4 C0.67 2.68 0.34 1.36 0 0 Z " fill="#191918" transform="translate(285,1142)"/>
<path d="M0 0 C0.99 0 1.98 0 3 0 C2.34 2.64 1.68 5.28 1 8 C0.01 7.34 -0.98 6.68 -2 6 C-1.49396008 3.83125748 -1.00016187 2.00032373 0 0 Z " fill="#E3E4E1" transform="translate(1135,1061)"/>
<path d="M0 0 C0.66 0 1.32 0 2 0 C2 0.66 2 1.32 2 2 C2.66 2.33 3.32 2.66 4 3 C-2.27 3 -8.54 3 -15 3 C-15 2.67 -15 2.34 -15 2 C-14.00097656 1.93941406 -13.00195312 1.87882813 -11.97265625 1.81640625 C-10.68230469 1.73261719 -9.39195312 1.64882813 -8.0625 1.5625 C-6.77472656 1.48128906 -5.48695313 1.40007813 -4.16015625 1.31640625 C-1.13976043 1.35080812 -1.13976043 1.35080812 0 0 Z " fill="#0B0908" transform="translate(312,832)"/>
<path d="M0 0 C1.98 0.66 3.96 1.32 6 2 C4.60804085 4.7839183 2.84424221 4.97898997 0 6 C0 5.34 0 4.68 0 4 C-0.66 3.67 -1.32 3.34 -2 3 C-1.34 2.01 -0.68 1.02 0 0 Z " fill="#161615" transform="translate(270,728)"/>
<path d="M0 0 C0.66 0.33 1.32 0.66 2 1 C1.01 3.64 0.02 6.28 -1 9 C-1.33 8.34 -1.66 7.68 -2 7 C-2.66 7 -3.32 7 -4 7 C-3.6875 4.625 -3.6875 4.625 -3 2 C-2.01 1.34 -1.02 0.68 0 0 Z " fill="#EAE9E6" transform="translate(832,337)"/>
<path d="M0 0 C1.98 0.66 3.96 1.32 6 2 C4.68 4.31 3.36 6.62 2 9 C0.14223235 5.86501708 -0.20140476 3.62528568 0 0 Z " fill="#151816" transform="translate(705,232)"/>
<path d="M0 0 C1.32 1.65 2.64 3.3 4 5 C2.02 5.99 2.02 5.99 0 7 C-0.33 6.01 -0.66 5.02 -1 4 C-1.66 4 -2.32 4 -3 4 C-3 3.34 -3 2.68 -3 2 C-2.01 1.34 -1.02 0.68 0 0 Z " fill="#171715" transform="translate(216,1101)"/>
<path d="M0 0 C0.33 0 0.66 0 1 0 C1 2.97 1 5.94 1 9 C-0.65 8.01 -2.3 7.02 -4 6 C-3.67 5.01 -3.34 4.02 -3 3 C-2.67 3.33 -2.34 3.66 -2 4 C-1.34 2.68 -0.68 1.36 0 0 Z " fill="#F0F1ED" transform="translate(193,1035)"/>
<path d="M0 0 C0.99 0.33 1.98 0.66 3 1 C3.8125 2.875 3.8125 2.875 4 5 C3.01 6.485 3.01 6.485 2 8 C1.34 8 0.68 8 0 8 C0 5.36 0 2.72 0 0 Z " fill="#F7F8F3" transform="translate(503,778)"/>
<path d="M0 0 C0.99 0.66 1.98 1.32 3 2 C3.33 1.67 3.66 1.34 4 1 C4.66 1.33 5.32 1.66 6 2 C6 2.99 6 3.98 6 5 C2.1936543 4.32829194 -1.35206816 3.27253436 -5 2 C-4.360625 1.855625 -3.72125 1.71125 -3.0625 1.5625 C-1.02454854 1.18992819 -1.02454854 1.18992819 0 0 Z " fill="#343632" transform="translate(572,194)"/>
<path d="M0 0 C1.98 0 3.96 0 6 0 C4.02 0.99 4.02 0.99 2 2 C2.33 2.66 2.66 3.32 3 4 C0.36 4 -2.28 4 -5 4 C-5 3.34 -5 2.68 -5 2 C-4.01 1.67 -3.02 1.34 -2 1 C-1.34 1.33 -0.68 1.66 0 2 C0 1.34 0 0.68 0 0 Z " fill="#141516" transform="translate(789,1143)"/>
<path d="M0 0 C0.66 0.33 1.32 0.66 2 1 C1.34 3.31 0.68 5.62 0 8 C-1.5 6.6875 -1.5 6.6875 -3 5 C-3 4.01 -3 3.02 -3 2 C-2.01 1.34 -1.02 0.68 0 0 Z " fill="#EAEAE8" transform="translate(638,1061)"/>
<path d="M0 0 C0.99 0.33 1.98 0.66 3 1 C3 1.66 3 2.32 3 3 C4.32 3.66 5.64 4.32 7 5 C5.3125 5.8125 5.3125 5.8125 3 6 C0.25 3.5625 0.25 3.5625 -2 1 C-1.34 0.67 -0.68 0.34 0 0 Z " fill="#161A17" transform="translate(838,996)"/>
<path d="M0 0 C4.95 0.99 4.95 0.99 10 2 C9.01 2.495 9.01 2.495 8 3 C8 3.66 8 4.32 8 5 C6.35 5 4.7 5 3 5 C3.33 4.34 3.66 3.68 4 3 C2.68 2.01 1.36 1.02 0 0 Z " fill="#171815" transform="translate(768,729)"/>
<path d="M0 0 C2.475 0.99 2.475 0.99 5 2 C4.67 3.32 4.34 4.64 4 6 C2.68 5.34 1.36 4.68 0 4 C0 2.68 0 1.36 0 0 Z " fill="#E9EBE6" transform="translate(575,607)"/>
<path d="M0 0 C3.875 1.75 3.875 1.75 5 4 C2.69 4.33 0.38 4.66 -2 5 C-1.125 1.125 -1.125 1.125 0 0 Z " fill="#E8E8E5" transform="translate(1052,1136)"/>
<path d="M0 0 C2.64 0 5.28 0 8 0 C7.34 1.65 6.68 3.3 6 5 C5.34 5 4.68 5 4 5 C3.67 4.01 3.34 3.02 3 2 C2.01 2.33 1.02 2.66 0 3 C0 2.01 0 1.02 0 0 Z " fill="#F6F7F1" transform="translate(969,1008)"/>
<path d="M0 0 C2.64 0.33 5.28 0.66 8 1 C7.01 1.33 6.02 1.66 5 2 C5 2.99 5 3.98 5 5 C2.525 4.01 2.525 4.01 0 3 C0 2.01 0 1.02 0 0 Z " fill="#1E241E" transform="translate(342,999)"/>
<path d="M0 0 C0.66 0.33 1.32 0.66 2 1 C1.67 2.98 1.34 4.96 1 7 C0.01 7 -0.98 7 -2 7 C-2.33 5.68 -2.66 4.36 -3 3 C-2.34 3 -1.68 3 -1 3 C-0.67 2.01 -0.34 1.02 0 0 Z " fill="#F3F5F2" transform="translate(828,980)"/>
<path d="M0 0 C2.12508244 3.18762365 2.5020163 5.26512223 3 9 C2.01 9 1.02 9 0 9 C-1.125 3.375 -1.125 3.375 0 0 Z " fill="#20201A" transform="translate(690,645)"/>
<path d="M0 0 C0.99 0.33 1.98 0.66 3 1 C3.75 2.9375 3.75 2.9375 4 5 C3.67 5.66 3.34 6.32 3 7 C2.01 6.67 1.02 6.34 0 6 C-0.38218767 4.34385343 -0.71395102 2.67542976 -1 1 C-0.67 0.67 -0.34 0.34 0 0 Z " fill="#EDEDEA" transform="translate(1001,343)"/>
<path d="M0 0 C0.33 0.66 0.66 1.32 1 2 C0.34 2 -0.32 2 -1 2 C-1.20625 2.639375 -1.4125 3.27875 -1.625 3.9375 C-3 6 -3 6 -6.125 6.75 C-7.548125 6.87375 -7.548125 6.87375 -9 7 C-6.24479785 4.04070881 -3.53372712 1.96318174 0 0 Z " fill="#D0D0CD" transform="translate(245,205)"/>
<path d="M0 0 C2.31 0 4.62 0 7 0 C6.67 0.99 6.34 1.98 6 3 C4.35 3.33 2.7 3.66 1 4 C0.67 2.68 0.34 1.36 0 0 Z " fill="#0B0C0C" transform="translate(290,1144)"/>
<path d="M0 0 C0.86625 0.556875 0.86625 0.556875 1.75 1.125 C-4 4.125 -4 4.125 -6.25 4.125 C-6.25 3.135 -6.25 2.145 -6.25 1.125 C-2.80384615 -1.09038462 -2.80384615 -1.09038462 0 0 Z " fill="#E5E6E1" transform="translate(580.25,1129.875)"/>
<path d="M0 0 C-2.36292656 2.52588702 -3.66462511 3.88820837 -7 5 C-7 4.34 -7 3.68 -7 3 C-7.66 2.67 -8.32 2.34 -9 2 C-5.86501708 0.14223235 -3.62528568 -0.20140476 0 0 Z " fill="#E7E7E4" transform="translate(593,1123)"/>
<path d="M0 0 C1.65 1.65 3.3 3.3 5 5 C3.02 5.33 1.04 5.66 -1 6 C-1.042721 4.33388095 -1.04063832 2.66617115 -1 1 C-0.67 0.67 -0.34 0.34 0 0 Z " fill="#1E1E1C" transform="translate(715,1103)"/>
<path d="M0 0 C1 3 1 3 0.375 5.0625 C-1 7 -1 7 -6 9 C-4.02 6.03 -2.04 3.06 0 0 Z " fill="#222420" transform="translate(1121,1094)"/>
<path d="M0 0 C0.99 0.33 1.98 0.66 3 1 C3.6875 3.0625 3.6875 3.0625 4 5 C3.34 5 2.68 5 2 5 C1.67 5.66 1.34 6.32 1 7 C0.34 5.02 -0.32 3.04 -1 1 C-0.67 0.67 -0.34 0.34 0 0 Z " fill="#E7E7E4" transform="translate(202,1076)"/>
<path d="M0 0 C2.64 0 5.28 0 8 0 C8.33 0.66 8.66 1.32 9 2 C2.25 3.125 2.25 3.125 0 2 C0 1.34 0 0.68 0 0 Z " fill="#F6F6F1" transform="translate(371,1008)"/>
<path d="M0 0 C-3.1749094 1.9078584 -5.10585211 2.1609041 -8.75 1.625 C-9.54921875 1.51414062 -10.3484375 1.40328125 -11.171875 1.2890625 C-11.77515625 1.19367187 -12.3784375 1.09828125 -13 1 C-13 0.67 -13 0.34 -13 0 C-4.57142857 -1.28571429 -4.57142857 -1.28571429 0 0 Z " fill="#151614" transform="translate(485,1005)"/>
<path d="M0 0 C0.33 0.99 0.66 1.98 1 3 C2.65 3 4.3 3 6 3 C6 3.33 6 3.66 6 4 C1.38 4 -3.24 4 -8 4 C-8 3.67 -8 3.34 -8 3 C-6.865625 2.690625 -5.73125 2.38125 -4.5625 2.0625 C-1.21224901 1.37075469 -1.21224901 1.37075469 0 0 Z " fill="#090906" transform="translate(220,831)"/>
<path d="M0 0 C5.94 0.99 5.94 0.99 12 2 C12 2.33 12 2.66 12 3 C7.38 3 2.76 3 -2 3 C-1.34 2.67 -0.68 2.34 0 2 C0 1.34 0 0.68 0 0 Z " fill="#0A0906" transform="translate(229,832)"/>
<path d="M0 0 C0 1.98 0 3.96 0 6 C-1.98 5.01 -3.96 4.02 -6 3 C-2.25 0 -2.25 0 0 0 Z " fill="#171914" transform="translate(596,612)"/>
<path d="M0 0 C0.99 0 1.98 0 3 0 C3 1.32 3 2.64 3 4 C2.34 4 1.68 4 1 4 C0.67 4.99 0.34 5.98 0 7 C-0.66 5.68 -1.32 4.36 -2 3 C-1.34 2.01 -0.68 1.02 0 0 Z " fill="#121412" transform="translate(837,583)"/>
<path d="M0 0 C-0.99 0.33 -1.98 0.66 -3 1 C-3.99 2.485 -3.99 2.485 -5 4 C-5.99 4 -6.98 4 -8 4 C-8.33 2.68 -8.66 1.36 -9 0 C-5.62182575 -0.84454356 -3.32534757 -1.10844919 0 0 Z " fill="#2D2E2C" transform="translate(553,1142)"/>
<path d="M0 0 C1.65 0 3.3 0 5 0 C3.37660195 1.70884005 1.70680947 3.37446717 0 5 C-0.66 5 -1.32 5 -2 5 C-1.34 3.35 -0.68 1.7 0 0 Z " fill="#F6F5F3" transform="translate(1110,1102)"/>
<path d="M0 0 C0.66 0.33 1.32 0.66 2 1 C1.01 2.98 0.02 4.96 -1 7 C-2.32 6.34 -3.64 5.68 -5 5 C-4.34 5 -3.68 5 -3 5 C-3 4.34 -3 3.68 -3 3 C-1.5 1.375 -1.5 1.375 0 0 Z " fill="#E5E5E0" transform="translate(635,1070)"/>
<path d="M0 0 C0.66 0.33 1.32 0.66 2 1 C2 3.64 2 6.28 2 9 C-0.15377564 6.37801226 -1.40072174 4.35595828 -2 1 C-1.34 0.67 -0.68 0.34 0 0 Z " fill="#E5E5E2" transform="translate(199,1068)"/>
<path d="M0 0 C0.33 0 0.66 0 1 0 C1.33 3.3 1.66 6.6 2 10 C1.01 9.67 0.02 9.34 -1 9 C-1.125 2.25 -1.125 2.25 0 0 Z " fill="#201F1C" transform="translate(189,1041)"/>
<path d="M0 0 C0.33 1.32 0.66 2.64 1 4 C-2.96 4 -6.92 4 -11 4 C-11 3.67 -11 3.34 -11 3 C-8.02148438 2.70703125 -8.02148438 2.70703125 -5.04296875 2.4140625 C-2.70011858 2.07334609 -2.70011858 2.07334609 0 0 Z " fill="#0A0807" transform="translate(743,831)"/>
<path d="M0 0 C2 3 2 3 2 6 C0.02 6.99 0.02 6.99 -2 8 C-1.125 1.125 -1.125 1.125 0 0 Z " fill="#F3F6F2" transform="translate(505,753)"/>
<path d="M0 0 C1.32 0.33 2.64 0.66 4 1 C4.625 3.375 4.625 3.375 5 6 C4.34 6.66 3.68 7.32 3 8 C0 2.25 0 2.25 0 0 Z " fill="#E8EAE5" transform="translate(996,335)"/>
<path d="M0 0 C0.66 0.33 1.32 0.66 2 1 C1.67 1.99 1.34 2.98 1 4 C1 3.34 1 2.68 1 2 C0.34 1.67 -0.32 1.34 -1 1 C-0.67 0.67 -0.34 0.34 0 0 Z M-3 3 C-1.0625 3.3125 -1.0625 3.3125 1 4 C1.33 4.99 1.66 5.98 2 7 C0.02 6.34 -1.96 5.68 -4 5 C-3.67 4.34 -3.34 3.68 -3 3 Z " fill="#E0E0DE" transform="translate(488,321)"/>
<path d="M0 0 C1.65 0.33 3.3 0.66 5 1 C4 4 4 4 1.9375 5.1875 C1.298125 5.455625 0.65875 5.72375 0 6 C-1 3 -1 3 0 0 Z " fill="#E3E3E0" transform="translate(695,260)"/>
<path d="M0 0 C1.98 0.99 3.96 1.98 6 3 C5.01 3.495 5.01 3.495 4 4 C4 4.66 4 5.32 4 6 C3.01 6 2.02 6 1 6 C0.67 4.02 0.34 2.04 0 0 Z " fill="#E4E4E0" transform="translate(1083,203)"/>
<path d="M0 0 C1.65 0.33 3.3 0.66 5 1 C4.67 2.32 4.34 3.64 4 5 C2.35 4.01 0.7 3.02 -1 2 C-0.67 1.34 -0.34 0.68 0 0 Z " fill="#DCDCD9" transform="translate(741,1123)"/>
<path d="M0 0 C0.33 0.66 0.66 1.32 1 2 C0.0625 4.125 0.0625 4.125 -1 6 C-3 6 -5 6 -7 6 C-6.21625 5.38125 -5.4325 4.7625 -4.625 4.125 C-2.03162353 2.10141339 -2.03162353 2.10141339 0 0 Z " fill="#1B1D19" transform="translate(1097,1119)"/>
<path d="M0 0 C0.66 0 1.32 0 2 0 C2.33 1.32 2.66 2.64 3 4 C2.01 4 1.02 4 0 4 C-0.33 4.66 -0.66 5.32 -1 6 C-1.66 5.01 -2.32 4.02 -3 3 C-2.34 3 -1.68 3 -1 3 C-0.67 2.01 -0.34 1.02 0 0 Z " fill="#F0F1EF" transform="translate(230,1109)"/>
<path d="M0 0 C1.32 1.65 2.64 3.3 4 5 C3.34 6.32 2.68 7.64 2 9 C1.34 9 0.68 9 0 9 C0 6.03 0 3.06 0 0 Z " fill="#161612" transform="translate(203,1083)"/>
<path d="M0 0 C0.33 0 0.66 0 1 0 C1.144375 0.763125 1.28875 1.52625 1.4375 2.3125 C1.9632594 5.08172908 1.9632594 5.08172908 3 8 C2.01 8.99 1.02 9.98 0 11 C-1.35015859 6.94952424 -0.62084998 4.2079832 0 0 Z " fill="#F5F5F0" transform="translate(688,991)"/>
<path d="M0 0 C0.66 0 1.32 0 2 0 C2 1.98 2 3.96 2 6 C1.01 6.33 0.02 6.66 -1 7 C-1.04254356 5.00045254 -1.04080783 2.99958364 -1 1 C-0.67 0.67 -0.34 0.34 0 0 Z " fill="#F3F6F2" transform="translate(504,951)"/>
<path d="M0 0 C0.99 0.33 1.98 0.66 3 1 C2.67 1.99 2.34 2.98 2 4 C2.66 4.33 3.32 4.66 4 5 C3.34 5 2.68 5 2 5 C1.67 5.99 1.34 6.98 1 8 C0.67 8 0.34 8 0 8 C0 5.36 0 2.72 0 0 Z " fill="#F4F6F3" transform="translate(503,877)"/>
<path d="M0 0 C0 0.99 0 1.98 0 3 C-0.99 3.33 -1.98 3.66 -3 4 C-5.1875 2.5625 -5.1875 2.5625 -7 1 C-3.375 -1.125 -3.375 -1.125 0 0 Z " fill="#EAEBE9" transform="translate(249,713)"/>
<path d="M0 0 C5.75 1.75 5.75 1.75 8 4 C5.39417629 4.93065133 4.35801776 5.14917407 1.75 4.0625 C1.1725 3.711875 0.595 3.36125 0 3 C0 2.01 0 1.02 0 0 Z " fill="#D7D9D1" transform="translate(1066,604)"/>
<path d="M0 0 C0.66 0.33 1.32 0.66 2 1 C1.67 1.66 1.34 2.32 1 3 C1.66 3 2.32 3 3 3 C3 3.66 3 4.32 3 5 C1 6.625 1 6.625 -1 8 C-1.93065133 5.39417629 -2.14917407 4.35801776 -1.0625 1.75 C-0.711875 1.1725 -0.36125 0.595 0 0 Z " fill="#1B1C18" transform="translate(720,217)"/>
<path d="M0 0 C1 3 1 3 1 6 C-0.9375 5.6875 -0.9375 5.6875 -3 5 C-3.33 4.01 -3.66 3.02 -4 2 C-2.68 1.34 -1.36 0.68 0 0 Z " fill="#E3E4DF" transform="translate(747,203)"/>
<path d="M0 0 C0.66 0 1.32 0 2 0 C1.75 1.875 1.75 1.875 1 4 C-1.0625 5.25 -1.0625 5.25 -3 6 C-3.33 5.01 -3.66 4.02 -4 3 C-3.34 3 -2.68 3 -2 3 C-1.67 2.34 -1.34 1.68 -1 1 C-0.67 0.67 -0.34 0.34 0 0 Z " fill="#181C1A" transform="translate(494,996)"/>
<path d="M0 0 C1.65 1.65 3.3 3.3 5 5 C4.01 5.495 4.01 5.495 3 6 C2.67 6.66 2.34 7.32 2 8 C2 7.01 2 6.02 2 5 C1.01 4.67 0.02 4.34 -1 4 C-0.67 2.68 -0.34 1.36 0 0 Z " fill="#EEF3ED" transform="translate(336,995)"/>
<path d="M0 0 C1.32 0 2.64 0 4 0 C3.67 1.32 3.34 2.64 3 4 C2.34 4 1.68 4 1 4 C1 5.65 1 7.3 1 9 C0.67 9 0.34 9 0 9 C0 6.03 0 3.06 0 0 Z " fill="#F1F3EE" transform="translate(503,762)"/>
<path d="M0 0 C1.65 1.65 3.3 3.3 5 5 C4.34 5.66 3.68 6.32 3 7 C2.01 6.34 1.02 5.68 0 5 C-0.1875 2.375 -0.1875 2.375 0 0 Z " fill="#E2E4DE" transform="translate(1116,639)"/>
<path d="M0 0 C0.99 0.99 1.98 1.98 3 3 C2.01 4.485 2.01 4.485 1 6 C-0.65 4.35 -2.3 2.7 -4 1 C-2.68 1.33 -1.36 1.66 0 2 C0 1.34 0 0.68 0 0 Z " fill="#E0DFDA" transform="translate(494,327)"/>
</svg>
